<svg width="125" height="125" viewBox="0 0 125 125" xmlns="http://www.w3.org/2000/svg">
  <g fill="#C1E1C1">
    <circle cx="12.5" cy="12.5" r="4" /><circle cx="37.5" cy="12.5" r="4" /><circle cx="62.5" cy="12.5" r="4" /><circle cx="87.5" cy="12.5" r="4" /><circle cx="112.5" cy="12.5" r="4" />
    <circle cx="12.5" cy="37.5" r="4" /><circle cx="37.5" cy="37.5" r="4" /><circle cx="62.5" cy="37.5" r="4" /><circle cx="87.5" cy="37.5" r="4" /><circle cx="112.5" cy="37.5" r="4" />
    <circle cx="12.5" cy="62.5" r="4" /><circle cx="37.5" cy="62.5" r="4" /><circle cx="62.5" cy="62.5" r="4" /><circle cx="87.5" cy="62.5" r="4" /><circle cx="112.5" cy="62.5" r="4" />
    <circle cx="12.5" cy="87.5" r="4" /><circle cx="37.5" cy="87.5" r="4" /><circle cx="62.5" cy="87.5" r="4" /><circle cx="87.5" cy="87.5" r="4" /><circle cx="112.5" cy="87.5" r="4" />
    <circle cx="12.5" cy="112.5" r="4" /><circle cx="37.5" cy="112.5" r="4" /><circle cx="62.5" cy="112.5" r="4" /><circle cx="87.5" cy="112.5" r="4" /><circle cx="112.5" cy="112.5" r="4" />
  </g>
</svg>
