<?xml version="1.0" encoding="UTF-8"?>
<!-- Generator: visioncortex VTracer 0.6.12 -->
<svg version="1.1" xmlns="http://www.w3.org/2000/svg" width="720" height="720">
<path d="M0 0 C237.6 0 475.2 0 720 0 C720 237.6 720 475.2 720 720 C482.4 720 244.8 720 0 720 C0 482.4 0 244.8 0 0 Z " fill="#116B68" transform="translate(0,0)"/>
<path d="M0 0 C0.6 0.32 1.2 0.64 1.81 0.97 C16.19 8.69 28.74 18.31 41 29 C41.73 29.61 42.45 30.23 43.2 30.86 C56.12 41.87 66.82 54.41 76.67 68.16 C77.83 69.76 79.02 71.34 80.21 72.91 C109.76 112.91 124.21 166.72 122 216 C121.98 216.51 121.98 216.51 121.87 219.08 C121.1 235.74 118.9 251.78 115 268 C114.78 268.9 114.57 269.81 114.34 270.74 C108.1 296.04 97.21 320.8 82 342 C81.56 342.61 81.13 343.22 80.68 343.85 C73.73 353.53 66.32 362.48 58 371 C57.34 371.68 56.68 372.37 55.99 373.07 C47.7 381.59 39.4 389.71 30 397 C28.16 398.5 26.33 400 24.5 401.5 C23.59 402.25 22.67 403 21.73 403.77 C19.96 405.21 18.19 406.66 16.43 408.11 C10.96 412.59 5.48 417.05 0 421.5 C-1.38 422.62 -2.76 423.74 -4.13 424.86 C-6.46 426.75 -8.79 428.63 -11.12 430.52 C-16.41 434.81 -21.52 439.24 -26.56 443.84 C-28.85 445.87 -31.2 447.75 -33.62 449.62 C-51.55 463.82 -69.11 480.85 -83 499 C-84.06 500.31 -85.12 501.62 -86.18 502.93 C-104.22 525.29 -126.12 556.14 -125.31 586.42 C-124.42 593.85 -121.76 600.53 -116.12 605.56 C-109.78 609.87 -102.58 611.96 -95 611 C-88.16 609.01 -81.67 606.31 -77.79 600.04 C-73.8 592.4 -72.66 584.73 -74.65 576.22 C-77.55 567.59 -82.51 560.2 -88 553 C-83.65 544.93 -78.96 537.25 -73.69 529.75 C-73.17 529.01 -72.66 528.27 -72.13 527.51 C-71.88 527.17 -71.88 527.17 -70.64 525.42 C-70.2 524.81 -69.76 524.2 -69.32 523.57 C-68 522 -68 522 -65 520 C-48.73 535.37 -34.73 556.32 -33.76 579.43 C-33.33 598.92 -37.87 615.43 -50.72 630.66 C-63.51 643.79 -80.34 650.86 -98.62 651.31 C-118.12 650.62 -134.57 643.91 -148.31 629.94 C-156.03 620.99 -161.42 609.52 -164 598 C-164.09 597.63 -164.09 597.63 -164.55 595.78 C-170.42 559.42 -149.84 522.81 -130.09 493.89 C-126.32 488.68 -122.35 483.64 -118.31 478.63 C-117.14 477.17 -115.98 475.7 -114.82 474.23 C-100.16 455.81 -82.95 437.3 -64.36 422.86 C-61.85 420.88 -59.53 418.79 -57.19 416.62 C-52.15 412.04 -46.83 407.87 -41.45 403.7 C-35.65 399.18 -30 394.48 -24.33 389.79 C-20.06 386.28 -15.77 382.81 -11.36 379.47 C-0.45 371.21 9.76 362.13 19.85 352.9 C21.38 351.54 22.97 350.24 24.57 348.97 C28.19 346.03 31 342.55 34 339 C34.77 338.12 35.53 337.24 36.32 336.34 C70.54 296.49 85.33 244.46 81.54 192.42 C77.94 150.41 62.13 110.53 34 79 C32.81 77.6 31.62 76.21 30.44 74.81 C16.83 59.43 0.3 46.41 -18 37 C-18.66 37 -19.32 37 -20 37 C-20.4 37.97 -20.81 38.93 -21.22 39.93 C-25.5 50.14 -29.85 60.32 -34.22 70.5 C-39.8 83.49 -45.33 96.51 -50.79 109.56 C-54.11 117.49 -57.44 125.42 -60.79 133.34 C-61 133.84 -61 133.84 -62.06 136.35 C-63.74 140.32 -65.42 144.29 -67.1 148.26 C-68.27 151.03 -69.44 153.81 -70.62 156.59 C-70.96 157.38 -71.29 158.18 -71.64 159 C-75.15 167.31 -78.56 175.66 -82 184 C-65.5 184.17 -65.5 184.17 18 185 C16.4 189.81 14.77 193.26 12.06 197.38 C6.72 205.72 1.67 214.22 -3.38 222.75 C-4.22 224.17 -5.06 225.59 -5.9 227.02 C-7.14 229.11 -8.38 231.2 -9.61 233.29 C-15.98 244.04 -22.41 254.75 -28.91 265.42 C-38.1 280.5 -47.13 295.66 -56.03 310.91 C-64.74 325.84 -73.59 340.7 -82.5 355.51 C-85.58 360.63 -88.65 365.75 -91.72 370.87 C-93.87 374.46 -96.03 378.05 -98.19 381.64 C-103.04 389.7 -107.84 397.78 -112.62 405.88 C-120.84 419.76 -129.14 433.6 -137.46 447.42 C-138.32 448.86 -139.18 450.29 -140.04 451.72 C-141.08 453.45 -142.13 455.18 -143.17 456.91 C-145.15 460.25 -147.08 463.62 -149 467 C-152.35 465.55 -154.5 463.72 -157.05 461.11 C-157.81 460.34 -158.57 459.57 -159.36 458.77 C-160.15 457.96 -160.94 457.15 -161.75 456.31 C-167.31 450.62 -172.95 445.17 -179 440 C-180.21 438.92 -181.42 437.84 -182.62 436.75 C-186.81 433.08 -191.19 429.68 -195.57 426.27 C-200.56 422.37 -205.42 418.34 -210.27 414.27 C-213.37 411.7 -216.54 409.23 -219.73 406.77 C-226.94 401.15 -233.9 395.28 -240.66 389.12 C-242.8 387.19 -244.95 385.27 -247.12 383.38 C-247.77 382.81 -248.41 382.25 -249.07 381.68 C-250.38 380.54 -251.7 379.41 -253.03 378.29 C-257.84 374.2 -261.94 369.83 -266 365 C-266.84 364.04 -267.67 363.08 -268.53 362.09 C-293.17 333.72 -309.15 300.42 -318 264 C-318.21 263.12 -318.43 262.25 -318.65 261.35 C-333.24 199.86 -320.41 133.75 -287.74 80.2 C-285.91 77.39 -284 74.69 -282 72 C-281.25 70.98 -280.49 69.95 -279.71 68.9 C-266.76 51.57 -252.26 35.15 -235 22 C-234.43 21.57 -233.86 21.13 -233.28 20.68 C-225.74 14.96 -218.09 9.61 -209.95 4.76 C-208.18 3.7 -206.43 2.62 -204.71 1.49 C-145.31 -36.98 -60.36 -32.63 0 0 Z " fill="#EBECDF" transform="translate(459,48)"/>
<path d="M0 0 C-0.58 4.08 -1.48 7.65 -3.01 11.48 C-3.43 12.54 -3.85 13.61 -4.29 14.7 C-4.52 15.28 -4.52 15.28 -5.69 18.19 C-5.93 18.8 -5.93 18.8 -7.15 21.88 C-8.48 25.22 -9.82 28.56 -11.16 31.89 C-12.3 34.75 -13.44 37.6 -14.58 40.46 C-16.65 45.64 -18.73 50.82 -20.8 55.99 C-24.44 65.09 -28.05 74.19 -31.62 83.31 C-35.4 92.95 -39.21 102.58 -43.06 112.19 C-43.19 112.5 -43.19 112.5 -43.83 114.11 C-45.97 119.45 -48.12 124.8 -50.26 130.14 C-55.38 142.91 -60.47 155.7 -65.52 168.5 C-83.11 213.14 -83.11 213.14 -90.78 231.13 C-91.17 232.06 -91.56 232.99 -91.97 233.95 C-92.31 234.76 -92.66 235.56 -93.01 236.4 C-94.2 239.53 -95.08 242.78 -96 246 C-63.99 246 -31.98 246 1 246 C-0.36 253.47 -1.83 260.74 -3.7 268.07 C-3.96 269.13 -4.22 270.18 -4.5 271.27 C-5.37 274.74 -6.25 278.21 -7.12 281.69 C-7.74 284.15 -8.36 286.6 -8.98 289.06 C-9.96 292.95 -10.93 296.84 -11.91 300.72 C-14.38 310.51 -16.83 320.29 -19.27 330.08 C-19.45 330.79 -19.63 331.5 -19.81 332.23 C-20.69 335.77 -21.58 339.31 -22.46 342.85 C-23.47 346.89 -24.48 350.93 -25.49 354.97 C-25.65 355.61 -25.65 355.61 -26.46 358.84 C-27.08 361.33 -27.71 363.82 -28.33 366.31 C-29.82 372.25 -31.3 378.19 -32.77 384.13 C-33.04 385.25 -33.32 386.37 -33.61 387.52 C-34.13 389.62 -34.64 391.72 -35.16 393.82 C-35.39 394.74 -35.62 395.66 -35.85 396.61 C-36.05 397.41 -36.25 398.22 -36.45 399.05 C-37 401 -37 401 -38 403 C-41.77 401.74 -43.25 399.86 -46 397 C-53.31 389.98 -60.79 383.44 -68.89 377.35 C-72.67 374.49 -76.33 371.5 -79.99 368.48 C-83.64 365.47 -87.32 362.48 -91 359.5 C-92.38 358.38 -93.76 357.25 -95.14 356.13 C-97.43 354.27 -99.72 352.43 -102.01 350.59 C-119.66 336.39 -134.45 320.88 -147 302 C-147.73 300.91 -148.46 299.82 -149.21 298.7 C-167.07 270.9 -176.43 237.86 -178 205 C-178.05 203.96 -178.1 202.93 -178.15 201.86 C-179.71 163.98 -171.33 126.75 -152 94 C-151.42 92.99 -150.84 91.98 -150.24 90.95 C-142.91 78.56 -133.91 67.43 -124 57 C-123.47 56.44 -122.95 55.88 -122.41 55.31 C-91.27 22.45 -46.03 -0.65 0 0 Z " fill="#116B68" transform="translate(352,63)"/>
<path d="M0 0 C4.79 1.4 8.89 3.47 13.12 6.06 C13.78 6.46 14.43 6.86 15.11 7.27 C40.83 23.12 63.14 44.67 80.67 69.16 C81.83 70.76 83.02 72.34 84.21 73.91 C113.76 113.91 128.21 167.72 126 217 C125.98 217.51 125.98 217.51 125.87 220.08 C125.1 236.74 122.9 252.78 119 269 C118.78 269.9 118.57 270.81 118.34 271.74 C112.1 297.04 101.21 321.8 86 343 C85.56 343.61 85.13 344.22 84.68 344.85 C77.73 354.53 70.32 363.48 62 372 C61.34 372.68 60.68 373.37 59.99 374.07 C51.7 382.59 43.4 390.71 34 398 C32.16 399.5 30.33 401 28.5 402.5 C27.59 403.25 26.67 404 25.73 404.77 C23.96 406.21 22.19 407.66 20.43 409.11 C14.96 413.59 9.48 418.05 4 422.5 C2.62 423.62 1.24 424.74 -0.13 425.86 C-2.46 427.75 -4.79 429.63 -7.12 431.52 C-12.41 435.81 -17.52 440.24 -22.56 444.84 C-24.85 446.87 -27.2 448.75 -29.62 450.62 C-47.55 464.82 -65.11 481.85 -79 500 C-80.06 501.31 -81.12 502.62 -82.18 503.93 C-100.22 526.29 -122.12 557.14 -121.31 587.42 C-120.42 594.85 -117.76 601.53 -112.12 606.56 C-105.78 610.87 -98.58 612.96 -91 612 C-84.16 610.01 -77.67 607.31 -73.79 601.04 C-69.8 593.4 -68.66 585.73 -70.65 577.22 C-73.55 568.59 -78.51 561.2 -84 554 C-79.65 545.93 -74.96 538.25 -69.69 530.75 C-69.17 530.01 -68.66 529.27 -68.13 528.51 C-67.88 528.17 -67.88 528.17 -66.64 526.42 C-66.2 525.81 -65.76 525.2 -65.32 524.57 C-64 523 -64 523 -61 521 C-44.73 536.37 -30.73 557.32 -29.76 580.43 C-29.33 599.92 -33.87 616.43 -46.72 631.66 C-59.51 644.79 -76.34 651.86 -94.62 652.31 C-114.12 651.62 -130.57 644.91 -144.31 630.94 C-152.03 621.99 -157.42 610.52 -160 599 C-160.09 598.63 -160.09 598.63 -160.55 596.78 C-166.42 560.42 -145.84 523.81 -126.09 494.89 C-122.32 489.68 -118.35 484.64 -114.31 479.63 C-113.14 478.17 -111.98 476.7 -110.82 475.23 C-96.16 456.81 -78.95 438.3 -60.36 423.86 C-57.85 421.88 -55.53 419.79 -53.19 417.62 C-48.15 413.04 -42.83 408.87 -37.45 404.7 C-31.65 400.18 -26 395.48 -20.33 390.79 C-16.06 387.28 -11.77 383.81 -7.36 380.47 C3.55 372.21 13.76 363.13 23.85 353.9 C25.38 352.54 26.97 351.24 28.57 349.97 C32.19 347.03 35 343.55 38 340 C38.77 339.12 39.53 338.24 40.32 337.34 C74.54 297.49 89.33 245.46 85.54 193.42 C81.94 151.41 66.13 111.53 38 80 C36.81 78.6 35.62 77.21 34.44 75.81 C20.04 59.53 2.94 47.42 -16 37 C-15.21 32.99 -13.51 29.36 -11.88 25.64 C-11.57 24.94 -11.26 24.24 -10.94 23.52 C-10.3 22.04 -9.65 20.56 -9 19.08 C-8 16.81 -7.01 14.54 -6.02 12.27 C-5.39 10.83 -4.76 9.39 -4.12 7.96 C-3.83 7.27 -3.53 6.59 -3.22 5.89 C-1.12 1.12 -1.12 1.12 0 0 Z " fill="#AADDBF" transform="translate(455,47)"/>
<path d="M0 0 C0 0.33 0 0.66 0 1 C-5.94 1 -11.88 1 -18 1 C-17.67 2.65 -17.34 4.3 -17 6 C-15.93 18.84 -17.42 30.68 -21 43 C-21.33 42.01 -21.66 41.02 -22 40 C-44.84 42.7 -67.33 45.9 -88.2 56.12 C-89.98 56.99 -91.77 57.82 -93.56 58.65 C-102.63 62.96 -110.85 68.17 -119 74 C-119.57 74.4 -120.13 74.8 -120.72 75.22 C-138.08 87.68 -152.72 103.59 -165 121 C-165.63 121.88 -166.26 122.76 -166.91 123.67 C-182.91 146.8 -191.6 172.89 -196.51 200.3 C-196.9 202.44 -197.32 204.58 -197.75 206.72 C-206.14 253.09 -192.54 306.61 -166.29 345.16 C-153.49 363.42 -137.87 379.33 -120.23 392.92 C-116.2 396.03 -112.3 399.25 -108.44 402.56 C-104.18 406.21 -99.84 409.73 -95.38 413.12 C-86.14 420.16 -77.31 427.5 -68.82 435.42 C-65.95 438.05 -63.01 440.53 -60 443 C-60.22 443.91 -60.44 444.83 -60.66 445.77 C-63.93 459.48 -66.96 473.24 -70 487 C-73.97 483.66 -77.82 480.29 -81.44 476.56 C-84.86 473.1 -88.37 469.83 -92.06 466.66 C-93.31 465.59 -94.56 464.5 -95.79 463.4 C-100.55 459.13 -105.53 455.19 -110.57 451.27 C-115.56 447.37 -120.42 443.34 -125.27 439.27 C-128.37 436.7 -131.54 434.23 -134.73 431.77 C-141.94 426.15 -148.9 420.28 -155.66 414.12 C-157.8 412.19 -159.95 410.27 -162.12 408.38 C-162.77 407.81 -163.41 407.25 -164.07 406.68 C-165.38 405.54 -166.7 404.41 -168.03 403.29 C-172.84 399.2 -176.94 394.83 -181 390 C-181.84 389.04 -182.67 388.08 -183.53 387.09 C-208.17 358.72 -224.15 325.42 -233 289 C-233.21 288.12 -233.43 287.25 -233.65 286.35 C-248.24 224.86 -235.41 158.75 -202.74 105.2 C-200.91 102.39 -199 99.69 -197 97 C-196.25 95.98 -195.49 94.95 -194.71 93.9 C-181.76 76.57 -167.26 60.15 -150 47 C-149.43 46.57 -148.86 46.13 -148.28 45.68 C-140.74 39.96 -133.09 34.61 -124.95 29.76 C-123.18 28.7 -121.43 27.62 -119.71 26.49 C-84.29 3.55 -40.98 -0.53 0 0 Z " fill="#AADDBF" transform="translate(374,23)"/>
</svg>
