<svg xmlns="http://www.w3.org/2000/svg" viewBox="0 0 100 100" role="img">
  <title>Tokyo Recycle Map brand mark</title>
  <rect width="100" height="100" rx="23" fill="#00766f" />
  <path
    d="M50 13c-16.7 0-29.4 12.4-29.4 28.2C20.6 61.7 50 84 50 84s29.4-22.3 29.4-42.8C79.4 25.4 66.7 13 50 13Z"
    fill="#f8fffb"
  />
  <circle cx="50" cy="42" r="17" fill="#00766f" />
  <path
    d="M32.5 45.6c2.3-7.7 9.3-13.3 17.5-13.3 7.7 0 14.3 4.7 17 11.5"
    fill="none"
    stroke="#f8fffb"
    stroke-linecap="round"
    stroke-width="4.5"
  />
  <path
    d="M67 43.8 66.2 34l-8.5 4.9"
    fill="none"
    stroke="#f8fffb"
    stroke-linecap="round"
    stroke-linejoin="round"
    stroke-width="4.5"
  />
  <path
    d="M67.5 49.4c-2.4 7.5-9.3 13-17.5 13-7.8 0-14.4-4.9-17.1-11.9"
    fill="none"
    stroke="#f8fffb"
    stroke-linecap="round"
    stroke-width="4.5"
  />
  <path
    d="M32.9 50.5 34 60.2l8.2-5.3"
    fill="none"
    stroke="#f8fffb"
    stroke-linecap="round"
    stroke-linejoin="round"
    stroke-width="4.5"
  />
  <path
    d="M43.7 49c0-7.2 7.5-10.9 17.5-9.1.6 10-4.3 17.2-11.8 17.2-3.5 0-5.7-3-5.7-8.1Z"
    fill="#9ff5dc"
  />
  <path
    d="M47.2 53.5c3.9-4.4 8.2-7.7 12.8-10"
    fill="none"
    stroke="#00766f"
    stroke-linecap="round"
    stroke-width="3"
  />
</svg>
