<?xml version="1.0" encoding="UTF-8"?>
<!-- Generator: visioncortex VTracer 0.6.12 -->
<svg version="1.1" xmlns="http://www.w3.org/2000/svg" viewBox="0 0 1024 1024" width="100%" height="100%">
<path d="M0 0 C337.92 0 675.84 0 1024 0 C1024 337.92 1024 675.84 1024 1024 C686.08 1024 348.16 1024 0 1024 C0 686.08 0 348.16 0 0 Z " fill="#076F69" transform="translate(0,0)"/>
<path d="M0 0 C0.21 0.2 0.21 0.2 1.29 1.21 C1.87 1.74 2.46 2.27 3.06 2.81 C3.35 3.07 3.35 3.07 4.79 4.39 C11.01 8.91 17.29 9.64 24.75 10.44 C42.95 12.63 59.78 16.71 77 23 C77.44 23.16 77.44 23.16 79.7 23.95 C82.31 24.89 84.91 25.87 87.5 26.88 C88.28 27.15 89.07 27.43 89.87 27.72 C95.31 29.92 97.43 32.52 99.86 37.84 C102.6 43.04 107.52 46.24 113 48 C114.61 47.97 116.21 47.91 117.81 47.81 C126.96 48.49 133.52 56.13 140 62 C141.14 63.01 142.27 64.02 143.41 65.03 C146.32 67.63 149.17 70.3 152 73 C152.73 73.68 153.45 74.37 154.2 75.07 C159.62 80.33 164.31 86.1 169 92 C169.91 93.12 170.82 94.24 171.73 95.36 C177.37 102.33 182.48 109.41 186.96 117.2 C187.68 118.45 188.42 119.7 189.15 120.95 C221.35 175.6 230.04 240.49 215 302 C210.01 320.92 203.13 338.71 194 356 C193.65 356.67 193.3 357.33 192.94 358.02 C187.48 368.36 181.22 377.8 174 387 C173.21 388.02 172.41 389.04 171.59 390.09 C165.66 397.39 159.13 404.07 152.5 410.75 C151.63 411.63 150.77 412.5 149.88 413.4 C143.89 419.36 137.59 424.73 131 430 C128.88 431.77 126.79 433.58 124.69 435.38 C120.29 439.13 115.81 442.76 111.25 446.31 C98.56 456.2 86.22 466.54 74 477 C73.4 477.51 72.8 478.03 72.18 478.56 C59.83 489.15 47.87 500.04 36.31 511.5 C35.43 512.37 34.55 513.23 33.65 514.12 C28.43 519.34 23.61 524.72 19.02 530.49 C17 533 14.92 535.44 12.81 537.88 C-4.47 559.11 -26.48 590.88 -25.27 619.6 C-24.23 628.74 -20.94 634.88 -14 641 C-7.8 644.74 -0.45 645.67 6.68 644.6 C13.36 642.88 18.55 639.88 22.28 633.97 C26.24 626.38 27.32 618.65 25.35 610.22 C22.45 601.59 17.49 594.2 12 587 C16.35 578.93 21.04 571.25 26.31 563.75 C26.83 563.01 27.34 562.27 27.87 561.51 C28.12 561.17 28.12 561.17 29.36 559.42 C29.8 558.81 30.24 558.2 30.68 557.57 C32 556 32 556 35 554 C51.27 569.48 65.44 590.28 66.2 613.54 C66.51 633.28 61.8 650.39 48.54 665.54 C35.99 677.72 19.34 684.7 1.88 685.19 C-16.9 684.86 -33 678.24 -46.68 665.41 C-59.34 652.24 -65.73 633.78 -65.47 615.63 C-63.61 571.8 -35.21 530.67 -7 499 C-6.14 498.03 -5.28 497.06 -4.39 496.05 C2.09 488.85 8.91 481.99 15.75 475.12 C16.64 474.23 17.52 473.34 18.44 472.42 C23.47 467.41 28.59 462.6 34 458 C35.16 456.99 36.33 455.98 37.49 454.97 C43.33 449.94 49.21 444.96 55.26 440.18 C58.78 437.38 62.26 434.53 65.75 431.69 C70.8 427.58 75.87 423.51 81 419.5 C93.6 409.65 105.97 399.54 118 389 C118.54 388.53 119.07 388.07 119.63 387.59 C126.85 381.28 133.1 374.58 139 367 C139.65 366.22 140.31 365.45 140.98 364.65 C150.99 352.7 158.4 339.06 165 325 C165.53 323.9 166.07 322.79 166.62 321.66 C173.63 306.39 177.45 289.55 180 273 C180.1 272.35 180.1 272.35 180.62 269.08 C185.74 233.87 179.81 198.17 166.9 165.3 C166.32 163.82 165.76 162.34 165.23 160.85 C164.51 158.93 164.51 158.93 163 156 C160.81 155.06 160.81 155.06 159 155 C158.88 154.37 158.75 153.74 158.62 153.09 C155.67 140.27 148.47 129.85 140 120 C139.08 118.9 138.17 117.8 137.25 116.7 C110.78 85.04 110.78 85.04 96.51 83.66 C88.16 83.58 81.53 83.57 75.27 89.69 C71.03 94.4 68.24 98.91 65.81 104.75 C65.45 105.59 65.09 106.43 64.72 107.29 C63.92 109.16 63.12 111.02 62.33 112.89 C61.13 115.71 59.88 118.5 58.62 121.3 C57.51 123.77 56.41 126.25 55.32 128.73 C54.52 130.52 53.71 132.3 52.9 134.09 C49.82 141.14 48.1 147.29 48 155 C47.38 155.1 46.75 155.2 46.11 155.3 C44 156 44 156 42.24 159.22 C41.63 160.66 41.04 162.11 40.46 163.57 C40.14 164.35 39.81 165.14 39.47 165.95 C38.43 168.48 37.4 171.02 36.38 173.56 C35.71 175.19 35.04 176.81 34.37 178.43 C32.24 183.62 30.12 188.81 28 194 C24.7 201.92 21.4 209.84 18 218 C34.5 218.17 34.5 218.17 118 219 C116.36 223.1 114.63 226.52 112.4 230.3 C112.05 230.9 111.7 231.5 111.34 232.11 C110.21 234.03 109.07 235.95 107.94 237.88 C107.16 239.2 106.38 240.52 105.6 241.85 C100.79 250 95.96 258.13 91.07 266.23 C84.5 277.12 77.99 288.05 71.5 299 C64.43 310.93 57.31 322.83 50.16 334.71 C43.04 346.56 35.98 358.43 28.94 370.32 C22.48 381.21 15.97 392.07 9.44 402.91 C2.66 414.17 -4.05 425.47 -10.69 436.81 C-16.91 447.45 -23.19 458.05 -29.56 468.61 C-31.1 471.16 -32.63 473.72 -34.16 476.28 C-39.32 484.93 -44.5 493.56 -50 502 C-52.98 499.02 -55.96 496.03 -58.93 493.04 C-60.39 491.57 -61.85 490.1 -63.31 488.62 C-64.03 487.9 -64.75 487.17 -65.5 486.41 C-70.16 481.73 -74.97 477.29 -80 473 C-80.56 472.52 -81.12 472.03 -81.7 471.54 C-87.62 466.45 -93.59 461.47 -99.79 456.72 C-103.19 454.07 -106.51 451.33 -109.85 448.59 C-112.86 446.11 -115.89 443.65 -118.92 441.19 C-120.31 440.06 -121.7 438.93 -123.09 437.8 C-126.03 435.4 -128.98 433.02 -131.94 430.66 C-140.03 424.19 -147.53 417.15 -155 410 C-155.64 409.39 -156.28 408.79 -156.94 408.16 C-166.41 399.16 -174.59 389.76 -182 379 C-182.47 378.31 -182.95 377.62 -183.44 376.91 C-218.95 324.79 -231.79 259.06 -220.12 197.13 C-215.9 176.19 -209.38 156.19 -200 137 C-199.83 136.65 -199.83 136.65 -198.97 134.87 C-180.92 98.24 -151.19 62.98 -115.57 42.34 C-114 41 -114 41 -113.4 38.47 C-112 36 -112 36 -110.01 35.4 C-108.27 35.11 -106.53 34.83 -104.78 34.56 C-100.12 33.62 -96.14 31.41 -91.94 29.25 C-68.91 17.91 -43.94 11.02 -18.25 9.56 C-10.36 8.99 -5.18 5.83 0 0 Z " fill="#EDEFE2" transform="translate(513,165)"/>
<path d="M0 0 C6.02 3.78 10.91 9.57 12.99 16.4 C14.49 23.45 13.53 28.89 10.9 35.57 C10.64 36.27 10.37 36.96 10.1 37.67 C9.22 39.95 8.33 42.22 7.44 44.5 C7.13 45.28 6.83 46.06 6.52 46.86 C4.18 52.85 1.81 58.83 -0.56 64.81 C-1.32 66.73 -2.08 68.64 -2.84 70.56 C-7.58 82.52 -12.34 94.48 -17.13 106.42 C-22.86 120.7 -28.52 135.01 -34.19 149.31 C-41.61 168.06 -49.06 186.79 -56.56 205.5 C-60.52 215.4 -64.48 225.3 -68.56 235.5 C-36.55 235.83 -4.54 236.16 28.44 236.5 C27.31 245.5 27.31 245.5 26.45 248.9 C26.35 249.28 26.35 249.28 25.86 251.24 C25.65 252.07 25.44 252.89 25.22 253.73 C24.99 254.62 24.77 255.51 24.54 256.43 C23.79 259.37 23.04 262.31 22.29 265.25 C21.76 267.34 21.23 269.44 20.7 271.53 C19.3 277.07 17.89 282.61 16.48 288.14 C14.27 296.83 12.07 305.51 9.86 314.2 C9.04 317.44 8.22 320.67 7.4 323.91 C4.57 335.06 1.75 346.22 -1.03 357.39 C-1.31 358.51 -1.59 359.63 -1.88 360.78 C-3.21 366.16 -4.55 371.53 -5.88 376.9 C-6.35 378.81 -6.83 380.72 -7.3 382.63 C-7.52 383.51 -7.73 384.38 -7.96 385.28 C-9.45 391.27 -9.45 391.27 -10.56 393.5 C-13.76 392.1 -15.75 390.47 -18.12 387.94 C-22.04 383.92 -26.22 380.42 -30.59 376.91 C-33.73 374.37 -36.8 371.75 -39.88 369.12 C-44.28 365.37 -48.75 361.74 -53.31 358.19 C-64.31 349.62 -75.18 340.87 -85.45 331.43 C-87.42 329.63 -89.45 327.91 -91.5 326.19 C-105.47 313.93 -116.3 298.49 -125.56 282.5 C-126.21 281.42 -126.85 280.34 -127.52 279.23 C-153.68 234.06 -155.96 177.72 -143.15 128.23 C-137.78 108.41 -129.01 87.91 -116.56 71.5 C-116.16 70.96 -115.75 70.41 -115.33 69.85 C-108.89 61.28 -101.97 53.25 -94.56 45.5 C-93.69 44.57 -92.82 43.65 -91.92 42.7 C-72.97 23.1 -29.27 -12.86 0 0 Z " fill="#076F69" transform="translate(478.5625,223.5)"/>
<path d="M0 0 C0.66 0 1.32 0 2 0 C2.28 0.58 2.56 1.16 2.85 1.76 C6.16 8.21 9.79 12.96 16.42 16.17 C19.16 17.05 20.96 16.98 23.81 16.81 C32.96 17.49 39.52 25.13 46 31 C47.14 32.01 48.27 33.02 49.41 34.03 C52.32 36.63 55.17 39.3 58 42 C58.73 42.68 59.45 43.37 60.2 44.07 C65.62 49.33 70.31 55.1 75 61 C75.91 62.12 76.82 63.24 77.73 64.36 C83.37 71.33 88.48 78.41 92.96 86.2 C93.68 87.45 94.42 88.7 95.15 89.95 C127.35 144.6 136.04 209.49 121 271 C116.01 289.92 109.13 307.71 100 325 C99.65 325.67 99.3 326.33 98.94 327.02 C93.48 337.36 87.22 346.8 80 356 C79.21 357.02 78.41 358.04 77.59 359.09 C71.66 366.39 65.13 373.07 58.5 379.75 C57.63 380.63 56.77 381.5 55.88 382.4 C49.89 388.36 43.59 393.73 37 399 C34.88 400.77 32.79 402.58 30.69 404.38 C26.29 408.13 21.81 411.76 17.25 415.31 C4.56 425.2 -7.78 435.54 -20 446 C-20.6 446.51 -21.2 447.03 -21.82 447.56 C-34.17 458.15 -46.13 469.04 -57.69 480.5 C-58.57 481.37 -59.45 482.23 -60.35 483.12 C-65.57 488.34 -70.39 493.72 -74.98 499.49 C-77 502 -79.08 504.44 -81.19 506.88 C-98.47 528.11 -120.48 559.88 -119.27 588.6 C-118.23 597.74 -114.94 603.88 -108 610 C-101.8 613.74 -94.45 614.67 -87.32 613.6 C-80.64 611.88 -75.45 608.88 -71.72 602.97 C-67.76 595.38 -66.68 587.65 -68.65 579.22 C-71.55 570.59 -76.51 563.2 -82 556 C-77.65 547.93 -72.96 540.25 -67.69 532.75 C-67.17 532.01 -66.66 531.27 -66.13 530.51 C-65.88 530.17 -65.88 530.17 -64.64 528.42 C-64.2 527.81 -63.76 527.2 -63.32 526.57 C-62 525 -62 525 -59 523 C-42.73 538.48 -28.56 559.28 -27.8 582.54 C-27.49 602.28 -32.2 619.39 -45.46 634.54 C-58.01 646.72 -74.66 653.7 -92.12 654.19 C-110.9 653.86 -127 647.24 -140.68 634.41 C-153.34 621.24 -159.73 602.78 -159.47 584.63 C-157.61 540.8 -129.21 499.67 -101 468 C-100.14 467.03 -99.28 466.06 -98.39 465.05 C-91.91 457.85 -85.09 450.99 -78.25 444.12 C-77.36 443.23 -76.48 442.34 -75.56 441.42 C-70.53 436.41 -65.41 431.6 -60 427 C-58.84 425.99 -57.67 424.98 -56.51 423.97 C-50.67 418.94 -44.79 413.96 -38.74 409.18 C-35.22 406.38 -31.74 403.53 -28.25 400.69 C-23.2 396.58 -18.13 392.51 -13 388.5 C-0.4 378.65 11.97 368.54 24 358 C24.27 357.77 24.27 357.77 25.63 356.59 C32.85 350.28 39.1 343.58 45 336 C45.65 335.22 46.31 334.45 46.98 333.65 C56.99 321.7 64.4 308.06 71 294 C71.53 292.9 72.07 291.79 72.62 290.66 C79.63 275.39 83.45 258.55 86 242 C86.2 240.71 86.41 239.41 86.62 238.08 C91.74 202.87 85.81 167.17 72.9 134.3 C72.32 132.82 71.76 131.34 71.23 129.85 C70.51 127.93 70.51 127.93 69 125 C66.81 124.06 66.81 124.06 65 124 C64.88 123.37 64.75 122.74 64.62 122.09 C61.67 109.27 54.47 98.85 46 89 C45.08 87.9 44.17 86.8 43.25 85.7 C16.78 54.04 16.78 54.04 2.51 52.66 C-9.23 52.54 -15.44 54.97 -24 63 C-23.33 58.54 -21.7 54.63 -19.9 50.52 C-19.75 50.16 -19.75 50.16 -18.96 48.34 C-18.3 46.81 -17.64 45.28 -16.97 43.75 C-15.93 41.37 -14.91 38.98 -13.88 36.6 C-11.43 30.92 -8.97 25.24 -6.51 19.56 C-5.35 16.9 -4.21 14.23 -3.06 11.56 C-2.74 10.83 -2.42 10.09 -2.08 9.33 C-0.62 5.92 0 3.79 0 0 Z " fill="#B0E5C8" transform="translate(607,196)"/>
<path d="M0 0 C0.21 0.2 0.21 0.2 1.29 1.21 C5.33 4.86 8.89 7.12 14 9 C14 9.33 14 9.66 14 10 C11.19 10.16 11.19 10.16 -3 11 C-2.67 12.32 -2.34 13.64 -2 15 C-1.7 18.39 -1.68 21.78 -1.62 25.19 C-1.61 25.63 -1.61 25.63 -1.51 27.88 C-1.32 43.08 -8.22 57.71 -13.81 71.56 C-14.42 73.07 -15.02 74.59 -15.62 76.1 C-17.07 79.74 -18.53 83.37 -20 87 C-20.33 87 -20.66 87 -21 87 C-21.09 86.08 -21.17 85.16 -21.26 84.22 C-22.33 74.9 -23.92 68.46 -31 62.12 C-38.3 56.96 -46.37 56.93 -55 58 C-91.62 67.06 -125.11 96.3 -147 126 C-147.64 126.86 -148.29 127.72 -148.95 128.61 C-179.11 170.18 -189.47 223.97 -181.97 274.29 C-176.43 308.15 -163.49 339.18 -142 366 C-141.78 366.27 -141.78 366.27 -140.68 367.65 C-130.02 380.83 -117.83 392.05 -104.4 402.36 C-101.01 404.97 -97.75 407.71 -94.5 410.5 C-90.08 414.28 -85.59 417.93 -81 421.5 C-70.78 429.46 -61.02 437.85 -51.56 446.69 C-49.44 448.6 -47.32 450.34 -45 452 C-48.28 466.01 -51.63 480.01 -55 494 C-58 494 -58 494 -59.5 492.83 C-60.02 492.28 -60.54 491.74 -61.07 491.18 C-61.66 490.59 -62.24 489.99 -62.83 489.38 C-63.45 488.74 -64.06 488.1 -64.69 487.44 C-65.96 486.14 -67.23 484.84 -68.51 483.54 C-69.12 482.92 -69.73 482.3 -70.35 481.66 C-73.41 478.58 -76.67 475.78 -80 473 C-81.02 472.13 -82.04 471.26 -83.05 470.39 C-88.54 465.7 -94.06 461.11 -99.79 456.72 C-103.19 454.07 -106.51 451.33 -109.85 448.59 C-112.86 446.11 -115.89 443.65 -118.92 441.19 C-120.31 440.06 -121.7 438.93 -123.09 437.8 C-126.03 435.4 -128.98 433.02 -131.94 430.66 C-140.03 424.19 -147.53 417.15 -155 410 C-155.64 409.39 -156.28 408.79 -156.94 408.16 C-166.41 399.16 -174.59 389.76 -182 379 C-182.47 378.31 -182.95 377.62 -183.44 376.91 C-218.95 324.79 -231.79 259.06 -220.12 197.13 C-215.9 176.19 -209.38 156.19 -200 137 C-199.83 136.65 -199.83 136.65 -198.97 134.87 C-180.92 98.24 -151.19 62.98 -115.57 42.34 C-114 41 -114 41 -113.4 38.47 C-112 36 -112 36 -110.01 35.4 C-108.27 35.11 -106.53 34.83 -104.78 34.56 C-100.12 33.62 -96.14 31.41 -91.94 29.25 C-68.91 17.91 -43.94 11.02 -18.25 9.56 C-10.36 8.99 -5.18 5.83 0 0 Z " fill="#B0E5C8" transform="translate(513,165)"/>
</svg>
